<?xml version="1.0" standalone="no"?>
<!DOCTYPE svg PUBLIC "-//W3C//DTD SVG 20010904//EN"
 "http://www.w3.org/TR/2001/REC-SVG-20010904/DTD/svg10.dtd">
<svg version="1.0" xmlns="http://www.w3.org/2000/svg"
 width="1536.000000pt" height="1024.000000pt" viewBox="0 0 1536.000000 1024.000000"
 preserveAspectRatio="xMidYMid meet">

<g transform="translate(0.000000,1024.000000) scale(0.100000,-0.100000)"
fill="#000000" stroke="none">
<path d="M3250 6954 c-269 -39 -536 -160 -750 -339 -106 -89 -154 -141 -145
-156 5 -7 4 -10 -3 -6 -24 15 -176 -203 -247 -356 -208 -448 -201 -933 22
-1369 78 -153 161 -266 293 -398 139 -139 253 -221 425 -306 185 -92 299 -126
528 -158 l39 -5 -28 37 c-15 20 -72 95 -126 166 l-99 129 -77 31 c-386 156
-698 507 -798 896 -53 206 -54 400 -3 596 148 566 594 941 1154 970 347 19
691 -113 935 -356 175 -174 288 -383 347 -640 26 -117 24 -426 -4 -541 -109
-435 -378 -750 -771 -899 l-83 -32 -123 -161 c-67 -89 -126 -168 -131 -176 -9
-16 49 -10 194 21 272 58 514 185 751 394 52 47 179 202 238 292 120 184 204
418 232 642 34 279 -5 564 -111 807 -69 157 -217 391 -239 378 -6 -3 -7 0 -5
8 8 19 -144 170 -251 250 -157 118 -388 222 -578 261 -185 38 -408 46 -586 20z
m7 -3050 c-3 -3 -12 -4 -19 -1 -8 3 -5 6 6 6 11 1 17 -2 13 -5z"/>
<path d="M9105 6681 c-219 -84 -347 -138 -365 -154 -13 -11 -20 -29 -20 -51 0
-30 5 -37 38 -53 26 -13 44 -32 62 -68 l25 -50 3 -818 c2 -602 0 -832 -9 -875
-40 -194 -7 -226 137 -132 42 28 82 50 89 50 7 0 38 -11 70 -25 162 -72 372
-106 533 -87 180 21 306 79 429 195 156 148 239 340 250 578 9 194 -31 379
-114 529 -51 91 -161 199 -243 237 -227 107 -423 55 -669 -176 -18 -17 -34
-31 -35 -31 0 0 0 213 2 472 2 438 1 474 -15 485 -27 20 -61 15 -168 -26z
m590 -976 c56 -27 127 -101 158 -165 54 -111 70 -199 71 -380 0 -143 -3 -176
-23 -247 -70 -248 -246 -371 -436 -305 -71 24 -121 68 -153 132 l-27 55 -3
299 c-2 180 1 326 8 368 18 121 77 204 174 250 54 25 173 21 231 -7z"/>
<path d="M10681 6663 c-65 -23 -136 -98 -155 -164 -20 -66 -20 -102 -1 -165
53 -178 276 -239 418 -114 143 126 114 345 -56 432 -55 27 -148 33 -206 11z"/>
<path d="M11931 6649 c-198 -33 -383 -163 -466 -328 -44 -89 -57 -138 -64
-251 l-6 -95 -57 -5 c-49 -4 -63 -10 -93 -40 -27 -27 -36 -45 -38 -75 l-2 -40
95 -3 95 -3 -3 -537 c-5 -632 -3 -619 -90 -665 -29 -16 -60 -39 -68 -52 -20
-30 -10 -83 16 -93 11 -4 184 -7 385 -7 l367 0 19 24 c38 47 14 105 -49 116
-59 10 -113 45 -136 90 -20 39 -21 55 -24 574 l-3 533 143 -2 c79 -2 150 -2
160 -1 27 2 69 89 66 136 l-3 40 -184 3 -183 2 4 168 c3 154 5 171 28 216 14
28 36 58 50 68 32 23 87 33 136 24 52 -10 136 -96 160 -164 18 -51 20 -52 58
-52 56 0 93 44 150 178 69 164 65 177 -61 211 -148 39 -283 49 -402 30z"/>
<path d="M6041 6557 c-17 -43 -2 -72 47 -99 57 -31 87 -73 102 -142 7 -36 10
-284 8 -792 l-3 -739 -24 -52 c-69 -154 -260 -192 -333 -67 -9 16 -31 79 -49
139 -17 61 -40 122 -51 138 -64 89 -225 96 -316 13 -70 -62 -89 -197 -43 -286
70 -134 191 -216 376 -255 108 -23 315 -23 415 0 233 53 405 220 472 462 22
76 22 96 28 809 5 690 6 733 23 752 10 11 30 23 45 27 39 10 52 24 52 55 0 64
23 60 -376 60 l-364 0 -9 -23z"/>
<path d="M3196 6357 c-16 -12 -18 -22 -13 -63 6 -47 101 -294 132 -341 21 -32
43 -35 204 -31 135 3 142 4 166 28 15 16 48 88 86 193 52 139 61 173 53 195
l-9 27 -301 3 c-241 2 -303 0 -318 -11z m104 -7 c0 -5 -2 -10 -4 -10 -3 0 -8
5 -11 10 -3 6 -1 10 4 10 6 0 11 -4 11 -10z m-16 -276 c3 -8 2 -12 -4 -9 -6 3
-10 10 -10 16 0 14 7 11 14 -7z"/>
<path d="M7635 6009 c-319 -35 -584 -244 -686 -542 -116 -338 3 -721 285 -921
143 -102 276 -146 461 -153 152 -6 242 5 370 48 354 117 575 445 552 814 -14
215 -97 391 -251 531 -188 172 -456 254 -731 223z m211 -189 c120 -59 217
-204 271 -406 24 -89 27 -116 26 -269 0 -187 -15 -269 -72 -391 -76 -162 -215
-229 -367 -177 -58 19 -177 132 -215 203 -85 163 -104 253 -104 500 1 210 16
304 66 402 85 167 232 218 395 138z"/>
<path d="M10745 5929 c-99 -38 -198 -74 -220 -80 -54 -15 -75 -36 -75 -74 0
-36 12 -50 52 -60 14 -4 36 -18 49 -31 31 -33 36 -106 34 -576 -2 -386 -2
-386 -26 -435 -17 -34 -36 -55 -64 -70 -22 -12 -46 -27 -52 -33 -16 -14 -17
-82 -1 -98 17 -17 699 -17 716 0 7 7 12 27 12 45 0 36 -18 58 -79 96 -19 12
-44 38 -55 57 -20 34 -21 52 -26 670 -3 349 -9 641 -13 648 -16 23 -73 10
-252 -59z"/>
<path d="M13391 5983 c-102 -4 -121 -12 -121 -50 0 -37 17 -61 49 -68 43 -9
79 -47 87 -91 12 -62 -25 -181 -158 -516 -108 -273 -138 -337 -138 -297 0 7
-51 143 -114 303 -134 342 -178 476 -174 525 3 33 8 38 61 64 57 28 57 28 57
72 0 40 -3 45 -26 51 -41 11 -657 -6 -671 -18 -29 -24 -14 -62 45 -114 77 -69
115 -142 268 -517 69 -172 182 -449 250 -616 l124 -304 -33 -61 c-40 -76 -113
-149 -171 -171 -33 -13 -62 -16 -108 -12 -219 20 -211 21 -248 -5 -111 -76
-107 -266 8 -339 120 -76 302 -33 450 106 124 115 187 215 293 465 70 167 399
984 483 1201 69 179 99 227 166 263 50 27 51 29 48 69 -4 61 -24 67 -193 65
-77 -1 -183 -4 -234 -5z"/>
<path d="M3358 5839 c-24 -14 -33 -46 -157 -609 -160 -723 -163 -738 -149
-786 13 -49 323 -458 339 -449 5 3 6 0 4 -7 -3 -8 10 -29 29 -47 42 -41 101
-48 135 -17 38 34 382 495 392 526 13 36 14 31 -146 750 -132 591 -139 618
-163 638 -19 15 -258 16 -284 1z"/>
</g>
</svg>
